<svg viewBox="0 0 500 296" fill="none" xmlns="http://www.w3.org/2000/svg"><g clip-path="url(#a)" fill="#fff"><path d="m5.17 163.2 118.02 4.65v19.45l-93.05-7.4.56 31.8 20.02-2.2-.54 15.63h-19.48l.82 70.7-19.22-4.11-7.13-128.53Z"/><path d="M82 274.83v-15.68l55.08-2.03-1.59-54.74-75.33 4.78 1.42 85.49h83.48l4.22-19.42-67.29 1.6Zm-.8-54.47h37.52l1.32 16.76h-38.85v-16.76Zm140.61-7.79-2.05-16.79-61.1 4.72-1.76 55.98 52.22-4.13.9 21.8h-42.19l-4.14 17.1h69.64l-8.27-59.23-48.66 3.2.87-22.06 44.54-.6Z"/><path d="m137.02 190.41 1.03-22.9 157.88-1.86 2.32 13.96-40.44-.26 7.99 111.9h-11.85l-15.98-111.57-100.95 10.73Zm-68.14-175.36 39.14 1.25v103.39l62.2-17.07 1.73 44.81h-95.63l-7.44-132.38Z"/><path d="m207.37 50.92-89.18-3.73 4.76 55.9 22.9-3.84-2.47-13.26 41.71-3.41.24 63h44.08l-22.04-94.66Zm-66.13 21.84-3.62-12.71 43.38 3.61 2.43 9.1h-42.2Z"/><path d="m149.06 38.6 5.32-23.55 165.18-6.85 2.12 20.77-75.94 7.92 23.17 111.62-28.1-.13-17.2-109.18-74.55-.6Zm195.34 112.69-14.67-142.07 38.87 6.9 25.54 95.7-8.77-95.89 28-1.71 1.73 129.97-38.69-1.8-16.59-70.32 3.83 75.21-19.26 4Zm147.46-151.29-68.27 14.44 5.04 127.5 71.46-8.69-8.23-133.25Zm-40.6 113.65-6.55-75.57 31.33 1.33v63.23l-24.78 11.01Zm-387.68-23.44-5-79.7-58.58 4.54 7.93 130.28h28.1l-8.04-49.8 35.59-5.32Zm-42.53-49.03h18.02l2.41 30.27-16.23-.39-4.2-29.88Z"/><path d="m320.34 42-55.81 10.34 15.02 92.11 15.62-.13-7.8-42.31 20.84 1.97 2.46 49.41h17.95l-8.28-111.4Zm-34.7 45.3-2.56-22.96 20.34-3.94 3.82 28.34-21.6-1.43Zm-160.62-77.97 19.67 5.04-7.03 23.2-19.3.2 6.66-28.44Zm215.38 194.91v-20.8h7.6v3.03h-4.47v5.03h1.87c2.17 0 3.23 1.28 3.23 3.83v5.28a4.2 4.2 0 0 1-.77 2.75 3.17 3.17 0 0 1-2.46.88h-5Zm3.13-3.02h.8a.92.92 0 0 0 .87-.35c.16-.33.24-.7.22-1.06v-3.73c.03-.4-.04-.78-.2-1.14a.91.91 0 0 0-.88-.37h-.8v6.65Zm6.63-.62v-7.72a4.03 4.03 0 0 1 .93-2.9 3.39 3.39 0 0 1 2.63-1h.54a3.46 3.46 0 0 1 2.63.99 3.84 3.84 0 0 1 .94 2.8v7.84a4.2 4.2 0 0 1-.95 2.74 3.23 3.23 0 0 1-2.62 1.15h-.54a3.2 3.2 0 0 1-2.68-1.12c-.6-.8-.92-1.77-.88-2.77Zm3-7.7v7.58c0 .78.28 1.17.84 1.17.54 0 .82-.4.82-1.17v-7.59c0-.76-.28-1.13-.82-1.13-.54 0-.84.37-.84 1.13Zm6.98 7.24c.1-.99.15-4.64.15-10.94h7.1v15.04h-3v-12.19h-1.26c0 4.59 0 7.64-.26 9.17 0 .85-.26 1.69-.75 2.39a2.67 2.67 0 0 1-2.03.63h-1.2v-2.85h.34a.7.7 0 0 0 .63-.28c.17-.3.26-.63.28-.97Zm8.94 4.1v-15.04h2.97v5.04h1.15c.96-.12 1.93.12 2.73.67.53.71.77 1.6.67 2.5v3.57c.1.9-.14 1.81-.67 2.55a3.9 3.9 0 0 1-2.73.71h-4.12Zm2.97-2.57h.7a.78.78 0 0 0 .86-.9v-3.13a.85.85 0 0 0-.2-.65.92.92 0 0 0-.65-.18h-.71v4.86Zm6.01 2.57v-15.04h2.98v12.19h1.5v-12.19h2.98v12.19h1.44v-12.19h2.98v15.04h-11.88Zm13.5-3.64v-7.72a4.13 4.13 0 0 1 .92-2.9 3.44 3.44 0 0 1 2.63-1h.56a3.45 3.45 0 0 1 2.63.99c.66.77 1 1.78.94 2.8v7.84c.02 1-.32 1.97-.96 2.74a3.24 3.24 0 0 1-2.6 1.15h-.57a3.18 3.18 0 0 1-2.67-1.12 4.23 4.23 0 0 1-.88-2.77Zm3.01-7.7v7.58c0 .78.26 1.17.82 1.17.56 0 .84-.4.84-1.17v-7.59c0-.76-.28-1.13-.84-1.13-.56 0-.82.37-.82 1.13Zm14.2 11.34h-2.84v-8.35l-2.03 8.35h-3.12v-15.04h2.86v8.87l2.01-8.87h3.12v15.04Zm-3.84-15.78a2.88 2.88 0 0 1-2.07-.73 2.83 2.83 0 0 1-.75-2.16v-.11h2.16v.11c0 .64.23.95.68.95.44 0 .65-.31.65-.95v-.11h2.09v.11a2.86 2.86 0 0 1-.75 2.16 2.74 2.74 0 0 1-2.01.73Zm17.07 16.04h-.7v5h-2.98v-5h-.69a3.38 3.38 0 0 1-2.8-1.12 4.15 4.15 0 0 1-.9-2.77v-7.74a4.05 4.05 0 0 1 .96-2.88 3.73 3.73 0 0 1 2.74-1h.7v-5.6h2.96v5.6h.71a3.73 3.73 0 0 1 2.73.98 3.74 3.74 0 0 1 .96 2.8v7.84c.02 1-.33 1.97-.98 2.74a3.38 3.38 0 0 1-2.71 1.15Zm-4.1-2.85h.42v-9.9h-.33c-.64 0-.97.38-.97 1.14v7.59c-.1.74.24 1.17.97 1.17h-.1Zm3.82-9.9h-.43v9.9h.43c.65 0 .97-.4.97-1.17v-7.59c0-.76-.32-1.13-.97-1.13Zm8.96-2.73h.56c2.22 0 3.34 1.25 3.34 3.72v4.33h-4.43v3.46c0 .75.27 1.12.8 1.12.55 0 .75-.35.75-1.08v-2.5h2.88v2.63c0 2.53-1.16 3.73-3.5 3.73h-.51a3.12 3.12 0 0 1-2.43-.95c-.63-.8-.94-1.8-.86-2.82v-8.14c-.05-.94.25-1.87.84-2.6a3.12 3.12 0 0 1 2.56-.9Zm-.53 3.72v1.87h1.65v-1.87c0-.8-.28-1.19-.82-1.19a.84.84 0 0 0-.56.17.7.7 0 0 0-.23.4c-.03.2-.04.4-.04.6v.02Zm10.45 4.76h2.88v3.37c.01.91-.28 1.8-.82 2.53a3.06 3.06 0 0 1-2.56 1.08h-.54a3.24 3.24 0 0 1-2.57-1.02 3.72 3.72 0 0 1-.88-2.61v-8.2c0-2.46 1.17-3.72 3.54-3.72h.54a2.91 2.91 0 0 1 3.29 3.27v2.69h-2.88v-2.05a2.5 2.5 0 0 0-.13-.97.83.83 0 0 0-.95-.2c-.1.04-.2.11-.28.2-.1.3-.15.63-.13.95v7.68c0 .76.24 1.15.71 1.15s.79-.37.79-1.12v-3.03Zm6.1 6.74v-12.19h-2.08v-2.85h7.14v2.86h-2.05v12.18h-3Zm14.4 0h-2.86v-8.35l-2.02 8.35h-3.11v-15.04h2.83v8.87l2.04-8.87h3.11v15.04Zm5.9 0h-4.23v-15.04h3.96c.98-.1 1.97.1 2.83.56a2.86 2.86 0 0 1 .71 2.28v1.73a3 3 0 0 1-.37 1.68c-.26.36-.63.64-1.06.78.46.13.87.4 1.17.76.32.57.45 1.22.4 1.87v2.23c.08.9-.16 1.82-.7 2.55a3.7 3.7 0 0 1-2.7.6Zm-1.24-9.19h.75c.48 0 .72-.33.72-1v-1.44c0-.56-.24-.83-.73-.83h-.8l.06 3.28Zm0 6.62h.75c.57 0 .85-.34.85-1.03v-2.04c0-.66-.28-.97-.86-.97h-.8l.06 4.04Zm6.18.32v-3.53c-.03-.63.07-1.27.3-1.86.24-.5.63-.9 1.11-1.17l.84-.49 1.08-.54.68-.31c.11-.07.21-.16.3-.27a.83.83 0 0 0 0-.39v-.95c.02-.26-.04-.53-.17-.76a.65.65 0 0 0-.56-.2.68.68 0 0 0-.58.2c-.14.22-.2.49-.17.75v1.58h-2.67v-2.14c0-1.9 1.05-2.85 3.14-2.85h.56a3.44 3.44 0 0 1 2.67.8c.5.6.75 1.37.7 2.16v8.94a.58.58 0 0 0 0 .37s.2.11.4.11h.52v2.76h-2.76c-.65 0-.97-.56-.97-1.7a2.88 2.88 0 0 1-2.45 1.87h-.09a1.64 1.64 0 0 1-1.36-.7 2.6 2.6 0 0 1-.52-1.68Zm4.36-1.46v-3.9c-.38.22-.74.47-1.06.77a1.6 1.6 0 0 0-.38 1.2v2.06c0 .66.23.99.7.99.46 0 .74-.43.74-1.12Zm5.67-.39c0-.99.15-4.64.15-10.94h7.1v15.04h-3v-12.19h-1.26c0 4.59-.1 7.64-.26 9.17 0 .85-.26 1.69-.75 2.39a2.67 2.67 0 0 1-2.03.63h-1.2v-2.85h.34a.7.7 0 0 0 .63-.28c.17-.3.27-.63.28-.97Zm8.94 4.1v-15.04h2.97v5.04h1.16c.95-.12 1.91.12 2.7.67.53.71.77 1.6.67 2.5v3.57c.1.9-.14 1.81-.67 2.55-.78.57-1.74.82-2.7.71h-4.13Zm2.97-2.57h.7a.78.78 0 0 0 .87-.9v-3.13a.85.85 0 0 0-.2-.65.9.9 0 0 0-.66-.18h-.71v4.86Zm-145.98 24.63v7.84c.02 1-.31 1.97-.95 2.74a3.26 3.26 0 0 1-2.61 1.16h-.56a3.18 3.18 0 0 1-2.67-1.12 4.22 4.22 0 0 1-.88-2.78v-11.62c-.1-1.33.2-2.66.84-3.82a3.74 3.74 0 0 1 3.27-1.18h.26c.17.02.34-.02.48-.1 0 0 .12-.21.12-.44h2.87c.09.9-.1 1.82-.54 2.61a2.8 2.8 0 0 1-2.28.7h-.24c-.6-.08-1.19.08-1.66.44a2.86 2.86 0 0 0-.4 1.86v1.87a3.56 3.56 0 0 1 2.8-1.87h.15a1.6 1.6 0 0 1 1.55.93c.34.89.5 1.83.45 2.78Zm-3.84 8.89c.56 0 .84-.4.84-1.18v-7.58c0-.76-.28-1.14-.84-1.14-.56 0-.82.38-.82 1.14v7.58c0 .75.27 1.18.82 1.18Zm5.37.33v-3.52c-.02-.63.08-1.27.32-1.86.23-.5.62-.9 1.1-1.18l.84-.48c.35-.19.7-.37 1.08-.54l.67-.32a.94.94 0 0 0 .3-.26.86.86 0 0 0 0-.39v-.95c.03-.27-.03-.53-.17-.76a.65.65 0 0 0-.56-.2.7.7 0 0 0-.6.2c-.13.22-.19.48-.16.74v1.59h-2.67v-2.15c0-1.86 1.05-2.85 3.15-2.85h.54a3.48 3.48 0 0 1 2.7.8c.48.62.72 1.39.68 2.17v8.94a.57.57 0 0 0 0 .37s.19.11.4.11h.52v2.76h-2.84c-.63 0-.97-.56-.97-1.7a2.88 2.88 0 0 1-2.44 1.87 1.64 1.64 0 0 1-1.37-.71 2.6 2.6 0 0 1-.52-1.68Zm4.37-1.45v-3.9c-.38.2-.74.47-1.05.77a1.63 1.63 0 0 0-.39 1.2v2.06c0 .65.22.99.7.99.46 0 .74-.43.74-1.12Zm7.9 3.71h-2.98v-15.04h2.99v6.13h1.72v-6.13h2.98v15.04h-2.98v-6.06h-1.72v6.06Zm6.32-2.26v-3.52c-.03-.63.08-1.27.31-1.86.24-.5.62-.9 1.1-1.18l.84-.48 1.09-.54.67-.32c.11-.07.21-.15.3-.26a.83.83 0 0 0 0-.39v-.95c.02-.27-.03-.53-.17-.76a.65.65 0 0 0-.56-.2.7.7 0 0 0-.6.2c-.13.22-.2.48-.17.74v1.59h-2.66v-2.15c0-1.86 1.04-2.85 3.15-2.85h.54a3.49 3.49 0 0 1 2.69.8c.48.62.73 1.39.69 2.17v8.94a.58.58 0 0 0 0 .37s.19.11.39.11h.52v2.76h-2.83c-.64 0-.97-.56-.97-1.7a2.87 2.87 0 0 1-2.45 1.87h-.1a1.63 1.63 0 0 1-1.35-.71 2.6 2.6 0 0 1-.43-1.68Zm4.36-1.45v-3.9c-.38.2-.73.47-1.04.77a1.62 1.62 0 0 0-.4 1.2v2.06c0 .65.23.99.7.99.46 0 .74-.43.74-1.12Zm7.92 3.71h-3v-15.04h3v6.13h1.71v-6.13h2.99v15.04h-2.99v-6.06h-1.71v6.06Zm6.36-3.64v-7.73a4.13 4.13 0 0 1 .93-2.89 3.39 3.39 0 0 1 2.63-1h.56a3.5 3.5 0 0 1 2.63.98c.66.78 1 1.78.94 2.8v7.84c.01 1-.33 1.98-.98 2.74a3.2 3.2 0 0 1-2.59 1.16h-.56a3.2 3.2 0 0 1-2.69-1.12 4.4 4.4 0 0 1-.87-2.78Zm3-7.71v7.58c0 .79.28 1.18.84 1.18.56 0 .84-.4.84-1.18v-7.58c0-.76-.28-1.14-.84-1.14-.56 0-.84.38-.84 1.14Zm10.47 11.35h-4.24v-15.04h3.96c.97-.1 1.96.1 2.82.56a2.78 2.78 0 0 1 .7 2.27v1.74c.05.58-.07 1.16-.35 1.67-.26.37-.63.65-1.06.78.46.14.87.4 1.18.77.31.57.45 1.22.39 1.86v2.24a3.7 3.7 0 0 1-.7 2.55c-.79.53-1.75.74-2.7.6Zm-1.25-9.19h.8c.49 0 .73-.33.73-1v-1.44c0-.56-.24-.84-.73-.84h-.8v3.28Zm0 6.62h.8c.58 0 .86-.34.86-1.03v-2.05c0-.65-.28-.97-.86-.97h-.8v4.05Zm17.76 2.57h-2.83v-8.35l-2.04 8.35h-3.11v-15.04h2.83v8.87l2.04-8.87h3.12v15.04Zm9.63 0-1.6-8.9v8.9h-2.78v-15.04h3.73l1.53 8.42 1.53-8.42h3.56v15.04h-2.98v-8.95l-1.6 8.95h-1.39Zm9.5-.45-2.35-14.59h2.91l1.16 9.2 1.12-9.2h2.83l-2.93 18.05a3.6 3.6 0 0 1-.63 1.7 1.48 1.48 0 0 1-1.21.54h-2.8v-2.85h1.27a.61.61 0 0 0 .48-.15c.1-.18.16-.39.19-.6l.1-.65c.02-.49-.02-.97-.14-1.45Zm13.94-5.05v1.86c0 2.56-1.14 3.84-3.45 3.84h-.64a3 3 0 0 1-2.53-1.06 3.93 3.93 0 0 1-.82-2.51v-2.52h2.85v2.18c0 .75.28 1.12.84 1.12.56 0 .82-.36.78-1.06v-2.02c0-.67-.3-1-.87-1h-1.42v-2.69h1.53a.67.67 0 0 0 .58-.22c.12-.32.18-.66.15-1v-.77c.01-.33-.04-.66-.15-.97a.61.61 0 0 0-.58-.28c-.49 0-.75.41-.75 1.25v1.21h-2.85v-1.43a4.3 4.3 0 0 1 .74-2.76 3.12 3.12 0 0 1 2.54-.93h.32a3.6 3.6 0 0 1 2.8.9c.6.8.89 1.79.8 2.79v1.1c.04.58-.09 1.16-.37 1.67a2 2 0 0 1-1.05.78c.45.14.86.4 1.16.77.3.53.43 1.14.4 1.75Zm1.69 5.5v-15.04h2.98v5.03h1.13c.96-.1 1.93.13 2.73.67.53.72.77 1.61.67 2.5v3.58c.1.9-.14 1.8-.67 2.55-.79.57-1.76.82-2.73.7h-4.1Zm2.98-2.57h.69a.79.79 0 0 0 .66-.23.78.78 0 0 0 .21-.67v-3.13a.86.86 0 0 0-.2-.65.94.94 0 0 0-.67-.19h-.7v4.87Zm8.4-12.47v15.04h-2.97v-15.04h2.96Zm7.01 15.04-2.39-6.71v6.7h-2.98v-15.03h2.98v5.7l2.31-5.7h2.97l-2.8 6.69 3 8.35h-3.1Zm12.05 0h-2.83v-8.35l-2.04 8.35h-3.11v-15.04h2.83v8.87l2.04-8.87h3.11v15.04Zm-137.3 33.53h-4.23v-15.03h3.95c.98-.1 1.96.1 2.82.56a2.85 2.85 0 0 1 .7 2.27v1.73c.05.58-.07 1.17-.35 1.68a2.1 2.1 0 0 1-1.06.78c.46.13.87.4 1.18.77.31.56.45 1.21.39 1.86v2.24a3.7 3.7 0 0 1-.7 2.55c-.79.53-1.75.74-2.7.6Zm-1.25-9.18h.8c.49 0 .73-.34.73-1v-1.44c0-.56-.24-.84-.73-.84h-.74l-.06 3.28Zm0 6.61h.8c.58 0 .86-.33.86-1.02v-2.05c0-.65-.28-.97-.86-.97h-.74l-.06 4.04Zm17.75 5.52v-2.95h-5.45v2.95h-2.91v-6.1h.69a9.5 9.5 0 0 0 .78-2.62c.29-1.87.43-6.87.41-15.02h7.91v17.65h1.4v6.09h-2.83Zm-3.9-8.65c-.1.88-.31 1.73-.62 2.56h2.84v-14.63h-1.87c.1 4.03-.01 8.06-.35 12.07Zm19.8-5.77v7.84c.02 1-.32 1.98-.97 2.74a3.2 3.2 0 0 1-2.6 1.15h-.56a3.22 3.22 0 0 1-2.69-1.11 4.4 4.4 0 0 1-.87-2.78v-2.42h-1v6.05h-2.98v-15.03h2.99v6.13h.99v-2.46a4.13 4.13 0 0 1 .93-2.89 3.39 3.39 0 0 1 2.63-1h.56a3.46 3.46 0 0 1 2.63.98c.67.78 1 1.78.94 2.8Zm-4.69.13v7.58c0 .78.28 1.17.84 1.17.56 0 .84-.39.84-1.17v-7.58c0-.77-.28-1.14-.84-1.14-.56 0-.88.37-.88 1.14h.04Zm6.31-3.69h2.99v1.62a2.95 2.95 0 0 1 2.4-1.7 1.87 1.87 0 0 1 1.64.79c.43.57.67 1.27.68 1.99v9.45c.04.78-.19 1.56-.66 2.2a2.11 2.11 0 0 1-1.64.76 3.16 3.16 0 0 1-2.3-1.42v6.56h-2.98l-.13-20.25Zm2.99 3.73v7.78c-.02.3.06.6.22.86a.81.81 0 0 0 .6.3c.52 0 .78-.38.78-1.1v-7.85c0-.72-.26-1.1-.78-1.1-.53 0-.82.32-.82 1.05v.06Zm10.72 4.56h2.88v3.37c.01.91-.28 1.8-.82 2.54a3.06 3.06 0 0 1-2.56 1.08h-.54a3.24 3.24 0 0 1-2.58-1.03 3.73 3.73 0 0 1-.87-2.6v-8.2c0-2.46 1.17-3.73 3.56-3.73h.52a2.91 2.91 0 0 1 3.29 3.28v2.68h-2.88v-2.05a2.5 2.5 0 0 0-.13-.97.81.81 0 0 0-.95-.2c-.1.05-.2.12-.28.2-.1.3-.15.63-.13.95v7.68c0 .76.24 1.15.71 1.15s.78-.37.78-1.11v-3.04Zm4.35 3.11v-7.73a4.03 4.03 0 0 1 .94-2.89 3.38 3.38 0 0 1 2.63-1h.54a3.46 3.46 0 0 1 2.63.98 3.86 3.86 0 0 1 .93 2.8v7.84c.02 1-.31 1.97-.95 2.74a3.23 3.23 0 0 1-2.61 1.15h-.54a3.2 3.2 0 0 1-2.69-1.11 4.22 4.22 0 0 1-.88-2.78Zm3-7.71v7.58c0 .78.29 1.17.85 1.17.54 0 .82-.39.82-1.17v-7.58c0-.77-.28-1.14-.82-1.14-.55 0-.84.37-.84 1.14Zm-82.1 30.52-2.48.4-1.87-124.3 4.35-.58v124.48Z"/></g><defs><clipPath id="a"><path fill="#fff" d="M0 0h500v295.83h-500z"/></clipPath></defs></svg>