<svg viewBox="0 0 119 22" xmlns="http://www.w3.org/2000/svg"><g clip-path="url(#a)"><path d="m76.72 1.14 17.03.66v2.8l-13.43-1.07.08 4.56 2.9-.31-.09 2.24h-2.8l.11 10.14-2.77-.6-1.03-18.42Z"/><path d="M87.8 17.15v-2.25l7.95-.3-.23-7.86-10.86.69.19 12.27h12.05l.62-2.78-9.72.23Zm-.11-7.82h5.41l.2 2.4h-5.61v-2.4Zm20.28-1.11-.3-2.41-8.8.68-.26 8.03 7.53-.6.13 3.13h-6.08l-.6 2.45h10.05l-1.2-8.5-7.02.47.13-3.17 6.42-.08Z"/><path d="m95.74 5.04.15-3.28 22.78-.27.33 2-5.83-.04 1.15 16.05h-1.71l-2.3-16-14.57 1.54Zm-85.8-2.88 5.64.18v14.83l8.97-2.45.26 6.42h-13.8l-1.07-18.98Z"/><path d="m29.91 7.3-12.86-.53.69 8.02 3.3-.55-.35-1.9 6.01-.5.04 9.05h6.35l-3.18-13.59Zm-9.54 3.13-.52-1.82 6.25.52.35 1.3h-6.08Z"/><path d="m21.5 5.54.77-3.38 23.83-.98.3 2.98-10.95 1.13 3.34 16.01-4.05-.02-2.48-15.66-10.76-.08Zm28.18 16.16-2.12-20.38 5.61 1 3.68 13.72-1.26-13.76 4.04-.24.25 18.64-5.58-.26-2.4-10.08.56 10.78-2.78.58Zm21.27-21.7-9.85 2.07.72 18.29 10.3-1.25-1.17-19.11Zm-5.85 16.3-.95-10.85 4.52.2v9.06l-3.57 1.58Zm-55.93-3.36-.72-11.43-8.45.65 1.14 18.67 4.06.02-1.16-7.15 5.13-.76Zm-6.13-7.03h2.6l.35 4.34-2.35-.06-.6-4.28Z"/><path d="m46.21 6.02-8.05 1.48 2.17 13.21 2.25-.01-1.12-6.07 3.01.28.36 7.09h2.59l-1.21-15.98Zm-5 6.5-.38-3.29 2.94-.57.55 4.07-3.12-.2Zm-23.17-11.18 2.83.72-1.01 3.33-2.79.03.97-4.08Z"/></g><defs><clipPath id="a"><path fill="#fff" d="M0 0h119v22h-119z"/></clipPath></defs></svg>