<svg viewBox="0 0 26 25" fill="none" xmlns="http://www.w3.org/2000/svg"><path d="M13 14.68a2.18 2.18 0 1 1 0-4.35 2.18 2.18 0 1 1 0 4.35Zm0-5.5a3.32 3.32 0 1 0 0 6.64 3.34 3.34 0 0 0 3.34-3.32c0-1.83-1.5-3.33-3.34-3.33Zm3.67-1.21a.77.77 0 1 0 0 1.53.77.77 0 1 0 0-1.53Z" fill="#fff"/><path d="M19.42 15.22a3.69 3.69 0 0 1-3.7 3.66h-5.44a3.69 3.69 0 0 1-3.7-3.65v-5.46a3.69 3.69 0 0 1 3.7-3.67h5.44a3.7 3.7 0 0 1 3.7 3.67v5.45Zm-6.42-15.1a12.4 12.4 0 0 0-12.43 12.38 12.4 12.4 0 0 0 12.43 12.38 12.4 12.4 0 0 0 12.43-12.38 12.4 12.4 0 0 0-12.43-12.38Z" fill="#fff"/></svg>