<svg viewBox="0 0 64 46" fill="none" xmlns="http://www.w3.org/2000/svg"><path d="M53.7 32.88v-26.28h-6.71v26.28h6.71Zm-10.07 0v-26.28h-6.71v26.28h6.71Zm-10.07-16.38v-9.9h-13.36v9.9h13.36Zm-6.33 20.37a5.04 5.04 0 0 0-1.5-3.82 5.16 5.16 0 0 0-3.88-1.48 5.27 5.27 0 0 0-5.32 5.23 5.27 5.27 0 0 0 5.32 5.23 5.14 5.14 0 0 0 3.84-1.43 4.96 4.96 0 0 0 1.54-3.73Zm-10.39-20.37v-9.9h-13.42v9.9h13.42Zm-3.73 20.37a8.34 8.34 0 0 1 2.47-6.18 8.62 8.62 0 0 1 6.26-2.48v-3.05a11.5 11.5 0 0 0-8.59 3.26 11.1 11.1 0 0 0-3.32 8.45c0 .93.13 1.85.38 2.74h-10.31v-39.61h53.57l6.65 6.6v19.68h3.36v6.6h-3.36v6.72h-30.14a8.8 8.8 0 0 1-8.23 5.85 8.54 8.54 0 0 1-6.27-2.43 8.19 8.19 0 0 1-2.47-6.15Z" fill="#FFC64F"/></svg>