<svg viewBox="0 0 25 25" xmlns="http://www.w3.org/2000/svg"><path d="M18.44 15.1c-1.37-1.27-1.19-1.07.47-3.26 1-1.33 1.4-2.15 1.28-2.5-.12-.33-.86-.24-.86-.24l-2.46.02s-.19-.03-.32.06a.65.65 0 0 0-.22.26s-.38 1.04-.9 1.91c-1.1 1.85-1.53 1.95-1.72 1.83-.41-.26-.3-1.07-.3-1.65 0-1.8.27-2.54-.54-2.74-.27-.06-.47-.1-1.15-.11-.88-.01-1.62 0-2.04.2-.28.14-.5.44-.37.46.16.03.54.1.73.37.25.34.24 1.1.24 1.1s.15 2.12-.33 2.38c-.34.19-.79-.18-1.77-1.87-.5-.85-.88-1.8-.88-1.8s-.07-.18-.2-.28a1.02 1.02 0 0 0-.37-.16l-2.34.01s-.35 0-.47.15c-.12.13-.01.4-.01.4s1.83 4.21 3.9 6.36c1.9 1.97 4.05 1.75 4.05 1.75h.98s.3.06.45-.1c.14-.15.13-.33.13-.33s-.02-1.31.6-1.5c.6-.2 1.37 1.26 2.19 1.81.62.43 1.09.34 1.09.34l2.18-.04s1.15-.06.6-.96c-.06-.07-.33-.65-1.64-1.87Zm6.54-2.6a12.4 12.4 0 0 1-12.43 12.38 12.4 12.4 0 0 1-12.42-12.38 12.4 12.4 0 0 1 12.42-12.38 12.4 12.4 0 0 1 12.43 12.38Z"/></svg>