<?xml version="1.0" encoding="utf-8"?>
<!-- Generator: Adobe Illustrator 25.4.1, SVG Export Plug-In . SVG Version: 6.00 Build 0)  -->
<svg version="1.1" id="Слой_1" xmlns="http://www.w3.org/2000/svg" xmlns:xlink="http://www.w3.org/1999/xlink" x="0px" y="0px"
	 viewBox="0 0 146.16 146.16" style="enable-background:new 0 0 146.16 146.16;" xml:space="preserve">
<style type="text/css">
	.st0{fill:#DE4659;}
	.st1{fill:#FF7F29;}
	.st2{fill:#FFB636;}
	.st3{fill:#FFC64F;}
	.st4{fill:#FFFFFF;}
	.st5{fill:none;stroke:#FFFFFF;stroke-width:2;stroke-miterlimit:10;}
	.st6{fill:#FEFAE7;}
	.st7{clip-path:url(#SVGID_00000159459038951583026110000002213001238623063709_);fill:#FFB636;}
	.st8{clip-path:url(#SVGID_00000159459038951583026110000002213001238623063709_);fill:none;stroke:#FFFFFF;stroke-miterlimit:10;}
	.st9{fill:none;stroke:#FEFAE7;stroke-miterlimit:10;}
	.st10{fill:none;}
	.st11{clip-path:url(#SVGID_00000083091370358726689100000016057233961253742238_);fill:#FFB636;}
	.st12{clip-path:url(#SVGID_00000083091370358726689100000016057233961253742238_);fill:none;stroke:#FFFFFF;stroke-miterlimit:10;}
	.st13{clip-path:url(#SVGID_00000083091370358726689100000016057233961253742238_);fill:#FFC64F;}
	.st14{fill:#1E2144;}
	.st15{fill:none;stroke:#FFC64F;stroke-miterlimit:10;}
	.st16{fill:none;stroke:#FFFFFF;stroke-miterlimit:10;}
	.st17{fill:#5DBDB1;}
	.st18{clip-path:url(#SVGID_00000070831658710708496280000013671285832592262018_);fill:none;stroke:#FEF2D9;stroke-miterlimit:10;}
	.st19{fill:none;stroke:#FEF2D9;stroke-miterlimit:10;}
	.st20{fill:#009E5C;}
	.st21{clip-path:url(#SVGID_00000026146635392246354780000008045592023039943841_);}
	.st22{fill:#375A44;}
	.st23{fill:#FEF2D9;}
	.st24{clip-path:url(#SVGID_00000061446852045278603790000009407815766444436397_);fill:none;stroke:#FEF2D9;stroke-miterlimit:10;}
	.st25{clip-path:url(#SVGID_00000031894236844228599540000000863764377187838900_);}
	.st26{clip-path:url(#SVGID_00000018208943121389501350000011259711087758592650_);fill:none;stroke:#FFC64F;stroke-miterlimit:10;}
	.st27{clip-path:url(#SVGID_00000120549501937848898780000014684348704383785661_);}
	.st28{clip-path:url(#SVGID_00000171692216782526793850000017088686462835853462_);}
	.st29{clip-path:url(#SVGID_00000168810865622723746120000006752488121536277147_);}
	.st30{fill:none;stroke:#375A44;stroke-width:2;stroke-miterlimit:10;}
	.st31{clip-path:url(#SVGID_00000142890294004367679230000014594430283346265512_);fill:none;stroke:#FFC64F;stroke-miterlimit:10;}
	.st32{clip-path:url(#SVGID_00000181055309955082403060000005228268280861875624_);}
	.st33{clip-path:url(#SVGID_00000155839589045994535120000007369082480154097536_);}
	.st34{fill:#008C4C;}
	.st35{clip-path:url(#SVGID_00000031173222291244578410000003857030218426102688_);}
	.st36{clip-path:url(#SVGID_00000031920956761635568560000013153191864574138553_);}
	.st37{clip-path:url(#SVGID_00000175317668992396673790000009438908007267788477_);}
	.st38{clip-path:url(#SVGID_00000052062008780685870110000009406348867439772328_);}
	.st39{clip-path:url(#SVGID_00000182499466875564516820000000152864332108106913_);fill:none;stroke:#FEF2D9;stroke-miterlimit:10;}
	.st40{clip-path:url(#SVGID_00000055684555235121812560000008110728095490566017_);fill:#5DBDB1;}
	.st41{clip-path:url(#SVGID_00000055684555235121812560000008110728095490566017_);fill:none;stroke:#FFFFFF;stroke-miterlimit:10;}
	.st42{clip-path:url(#SVGID_00000055684555235121812560000008110728095490566017_);fill:#FFC64F;}
	.st43{clip-path:url(#SVGID_00000008117659422637940860000017664782669081796281_);}
	.st44{clip-path:url(#SVGID_00000116919716663777179670000000430597705283568309_);}
	.st45{clip-path:url(#SVGID_00000070099452861148721370000014554677197877165459_);}
	.st46{clip-path:url(#SVGID_00000156559230305289017470000009209582122728247184_);}
	.st47{clip-path:url(#SVGID_00000157293535823253114160000011606525512497169815_);fill:none;stroke:#375A44;stroke-miterlimit:10;}
	.st48{clip-path:url(#SVGID_00000044144180083695542960000013526646282367323530_);}
	.st49{clip-path:url(#SVGID_00000142869101787949122600000011765125915655310724_);}
	.st50{clip-path:url(#SVGID_00000176755493563888563170000005120973406840255934_);}
	.st51{clip-path:url(#SVGID_00000098214404049955010090000005454200634632732350_);}
	.st52{clip-path:url(#SVGID_00000158717145658842107610000001612890012286164882_);}
	.st53{clip-path:url(#SVGID_00000075160490995246958410000014701551543714375595_);fill:none;stroke:#FFC64F;stroke-miterlimit:10;}
	.st54{clip-path:url(#SVGID_00000175305843953224374770000017239588057988019088_);fill:none;stroke:#FEF2D9;stroke-miterlimit:10;}
	.st55{clip-path:url(#SVGID_00000015333736933360500270000015036636834772221100_);}
	.st56{clip-path:url(#SVGID_00000135656554822174346350000016030222852769310850_);fill:none;stroke:#FEF2D9;stroke-miterlimit:10;}
	.st57{clip-path:url(#SVGID_00000116227380556889365420000016323662518197030036_);fill:none;stroke:#FFC64F;stroke-miterlimit:10;}
	.st58{clip-path:url(#SVGID_00000172441193090168908920000009132232034174351000_);}
	.st59{clip-path:url(#SVGID_00000182509048402855563260000004467437513997723056_);}
	.st60{fill:#252C5B;}
</style>
<g>
	<defs>
		<circle id="SVGID_00000035503659471154610970000007987903343814728074_" cx="712.55" cy="1445.01" r="372.92"/>
	</defs>
	<clipPath id="SVGID_00000002375269103178266740000004180191626073267605_">
		<use xlink:href="#SVGID_00000035503659471154610970000007987903343814728074_"  style="overflow:visible;"/>
	</clipPath>
	<g id="DJ_MULT_1_" style="clip-path:url(#SVGID_00000002375269103178266740000004180191626073267605_);">
	</g>
</g>
<circle class="st23" cx="73.08" cy="73.08" r="73.08"/>
<g>
	<path class="st2" d="M32.74,103.9l-0.04,0.46c-0.04,0.42-0.11,0.71-0.21,0.89c-0.11,0.18-0.32,0.3-0.63,0.35l-1.71,0.29l0.05,4.85
		l4.25-0.73c1.59-0.27,2.56-1.54,2.9-3.81l4.53-27.72c-1.38,0.17-2.74,0.35-4.09,0.56l-0.85,0.15l-1.6,12.9l-1.86-12.31l-0.58,0.1
		c-1.53,0.29-3.04,0.6-4.51,0.92l4.15,20.5C32.72,102.35,32.79,103.21,32.74,103.9z"/>
	<path class="st2" d="M51.47,107.11l-0.2-18.15l2.82,17.7l1.98-0.34l2.3-18.57l0.2,18.15l4.64-0.79l-0.33-27.2
		c-2.17-0.16-4.34-0.25-6.51-0.27l-1.53,13.95l-2-13.91c-2.09,0.06-4.17,0.17-6.23,0.34l0.36,29.87L51.47,107.11z"/>
	<path class="st2" d="M64.48,97.66c0.03,2.39,0.68,4.16,1.95,5.3c1.27,1.15,3.02,1.53,5.24,1.15l1.07-0.18
		c3.52-0.6,5.28-3.39,5.27-8.38l-0.2-15.83c-1.85-0.13-3.7-0.34-5.55-0.62c0.09,0.26,0.15,0.58,0.16,0.98l0.2,16.72
		c0,1.14-0.42,1.79-1.26,1.93c-0.98,0.17-1.48-0.32-1.52-1.46l-0.2-16.72c-0.01-0.71,0.07-1.23,0.24-1.57
		c0.04-0.09,0.1-0.17,0.16-0.24c-1.8-0.29-3.61-0.52-5.42-0.7c-0.25,1.1-0.37,2.39-0.35,3.87L64.48,97.66z"/>
	<path class="st2" d="M84.57,101.45l-0.16-12.15l2.98-0.51c1.69-0.29,2.86-1.01,3.51-2.17c0.65-1.16,0.95-2.73,0.91-4.71l-0.02-2.46
		c-1.72,0.18-3.45,0.31-5.2,0.38l0.03,2.52c0.02,0.6-0.04,1.03-0.19,1.3c-0.14,0.27-0.47,0.45-0.97,0.53l-1.07,0.18l-0.06-4.47
		c-1.71,0.02-3.42-0.01-5.15-0.1l0.27,22.52L84.57,101.45z"/>
	<path class="st2" d="M95,86.97l-3.09,13.23l5.4-0.92l2.72-11.82l0.44-0.07l0.14,11.33l5.12-0.87l-0.25-20.81
		c-1.68,0.41-3.38,0.8-5.12,1.14l0.04,4.28l-0.99,0.17c-0.56,0.09-0.92,0.02-1.1-0.24s-0.26-0.67-0.25-1.24l-0.03-2.54
		c-1.7,0.29-3.42,0.54-5.16,0.74l0.04,3.21C92.89,85,93.59,86.47,95,86.97z"/>
	<path class="st2" d="M34.72,50.45L33,66.19l-2.17-15.07l-6.07,1.04L25,72.93c1.47-0.34,2.96-0.67,4.49-0.98l-0.09-8.37l1.3,8.14
		c1.56-0.3,3.14-0.59,4.75-0.84l1.05-8.51l0.09,8.33c1.53-0.23,3.07-0.44,4.64-0.62l-0.25-20.69L34.72,50.45z"/>
	<path class="st2" d="M49.8,47.87l-1.6,12.9l-1.86-12.31l-5.12,0.88l4.12,20.33c1.91-0.15,3.83-0.26,5.77-0.32l3.65-22.32
		L49.8,47.87z"/>
	<path class="st2" d="M55.26,66.18l0.05,3.12c1.71,0.02,3.43,0.08,5.14,0.19l-0.08-4.19L55.26,66.18z"/>
	<path class="st2" d="M67.92,63.04c-0.07-2.47-0.86-3.83-2.37-4.09c1.24-0.73,1.85-2.24,1.84-4.52l-0.07-3.75
		c-0.05-1.9-0.6-3.31-1.64-4.23c-1.04-0.92-2.64-1.2-4.78-0.84l-0.91,0.16c-1.83,0.31-3.1,1.01-3.83,2.08
		c-0.73,1.08-1.06,2.59-1,4.54l0.06,3.91l5.08-0.87l-0.03-3.02c-0.01-0.54,0.06-0.92,0.21-1.14c0.15-0.22,0.4-0.35,0.75-0.41
		c0.71-0.12,1.07,0.28,1.06,1.21l0.04,3.79c0.01,0.52-0.06,0.88-0.2,1.1c-0.14,0.21-0.44,0.36-0.89,0.44l-2.46,0.42l0.07,5.42
		l2.58-0.44c0.45-0.08,0.75-0.02,0.91,0.17c0.16,0.19,0.24,0.55,0.24,1.06l0.08,5.63c1.78,0.16,3.57,0.37,5.34,0.65
		c0.02-0.32,0.03-0.65,0.02-1L67.92,63.04z"/>
	<path class="st2" d="M82.67,42.26l0.35,29.31c1.72-0.03,3.43-0.11,5.13-0.24l-0.36-29.95L82.67,42.26z"/>
	<path class="st2" d="M81.76,66.84l-0.07-7.34c0.01-4.09-1.68-5.84-5.07-5.26l-2.5,0.43l-0.11-10.93l-5.12,0.88l0.31,25.9
		c0.08,0.01,0.16,0.02,0.24,0.04c3.78,0.66,7.57,0.97,11.31,1.02c0.01-0.02,0.03-0.03,0.04-0.05
		C81.48,70.44,81.81,68.88,81.76,66.84z M76.58,60.9l0.06,6.32c-0.01,0.6-0.09,1.06-0.26,1.37c-0.16,0.31-0.52,0.52-1.08,0.61
		l-0.99,0.17l-0.12-9.78l0.99-0.17c0.56-0.09,0.93-0.01,1.13,0.26C76.51,59.95,76.6,60.36,76.58,60.9z"/>
	<path class="st2" d="M102.71,38.83l-5.2,0.89l-3.08,12.09L94.3,40.27l-5.12,0.88l0.36,30.07c1.73-0.16,3.44-0.37,5.12-0.63
		L94.5,57.47L98.11,70c1.81-0.34,3.59-0.72,5.33-1.14l-4.48-15.37L102.71,38.83z"/>
	<path class="st2" d="M106.88,38.12l-3.22,30.68c1.59-0.39,3.14-0.8,4.67-1.25l0.33-4.45l3.14-0.54l0.46,3.78
		c1.64-0.54,3.23-1.09,4.77-1.67l-4.07-27.6L106.88,38.12z M109.1,57.8l0.8-10.39l1.27,10.04L109.1,57.8z"/>
	<g>
		<path class="st2" d="M108.06,74.96l-0.65,0.11l-0.07-0.38l1.76-0.3l0.07,0.38l-0.65,0.11l0.28,1.64l-0.47,0.08L108.06,74.96z"/>
		<path class="st2" d="M111.54,76.05l-0.21-1.21l-0.42,1.1l-0.21,0.04l-0.76-0.87l0.2,1.18l-0.44,0.07l-0.34-2.02l0.39-0.07
			l0.97,1.12l0.53-1.38l0.38-0.07l0.35,2.02L111.54,76.05z"/>
	</g>
</g>
</svg>
